<svg width="166" height="38" viewBox="0 0 166 38" fill="none" xmlns="http://www.w3.org/2000/svg">
<path fill-rule="evenodd" clip-rule="evenodd" d="M12.2143 0.566528C18.4582 0.566528 23.6538 5.26433 24.3725 11.3435H17.5187C16.856 11.3435 16.3582 11.6764 16.0813 12.227L14.8648 15.1017L13.8692 12.8369L10.8857 6.14785C10.6088 5.54125 10.111 5.20829 9.44835 5.20829C8.84176 5.20829 8.34396 5.594 8.06703 6.14785L5.85495 11.3435H0C0.774725 5.26433 5.91429 0.566528 12.2143 0.566528ZM24.3725 14.383H18.5143L16.3022 19.5786C16.0813 20.1325 15.5275 20.4621 14.9209 20.4621C14.3143 20.4621 13.7604 20.1292 13.4835 19.5786L10.5 12.8369L9.5044 10.572L8.28791 13.4467C8.06703 14.0533 7.51319 14.3863 6.90659 14.3863H0C0.220879 16.0445 0.718681 17.5907 1.54615 18.972V19.0281L12.2143 37.4336L22.8264 19.0281C22.8264 18.972 22.8824 18.972 22.8824 18.972C23.6571 17.5907 24.2077 16.0413 24.3758 14.3863L24.3725 14.383Z" fill="#594494"/>
<path fill-rule="evenodd" clip-rule="evenodd" d="M111.23 29.2775H110.402V37.2917H111.23V34.3082C111.23 33.3126 111.948 32.706 112.832 32.706C113.771 32.706 114.325 33.3126 114.325 34.3082V37.2917H115.153V34.0313C115.153 32.7588 114.269 31.9313 112.997 31.9313C112.334 31.9313 111.671 32.1522 111.23 32.7588V29.2775ZM119.244 31.9313C117.751 31.9313 116.646 33.0357 116.646 34.6939C116.646 36.3522 117.751 37.4005 119.3 37.4005C120.075 37.4005 120.846 37.2357 121.456 36.5731L121.014 36.0192C120.573 36.461 120.019 36.6819 119.356 36.6819C118.416 36.6819 117.642 36.128 117.477 34.9676H121.733V34.6346C121.733 33.0324 120.681 31.928 119.247 31.928L119.244 31.9313ZM119.244 32.65C120.127 32.65 120.79 33.3126 120.902 34.3082H117.53C117.642 33.3687 118.248 32.65 119.244 32.65ZM128.254 32.0434H127.426V32.8181C127.041 32.2643 126.375 31.9346 125.491 31.9346C124.054 31.9346 122.893 33.095 122.893 34.6972C122.893 36.2994 124.054 37.4038 125.491 37.4038C126.375 37.4038 127.037 37.0709 127.426 36.5203V37.295H128.254V32.0434ZM125.6 32.706C126.704 32.706 127.479 33.5335 127.479 34.6972C127.479 35.861 126.704 36.6324 125.6 36.6324C124.496 36.6324 123.721 35.7489 123.721 34.6972C123.721 33.5928 124.496 32.706 125.6 32.706ZM131.073 29.2808H130.245V37.295H131.073V29.2808ZM136.545 32.0434H134.28V30.3852H133.453V32.0434H132.292V32.8181H133.453V35.472C133.453 36.7972 134.171 37.4071 135.276 37.4071C135.938 37.4071 136.436 37.1863 136.822 36.9093L136.436 36.2467C136.159 36.5236 135.774 36.6324 135.332 36.6324C134.725 36.6324 134.28 36.2994 134.28 35.472V32.8181H136.545V32.0434ZM138.866 29.2808H138.038V37.295H138.866V34.3115C138.866 33.3159 139.585 32.7093 140.468 32.7093C141.464 32.7093 142.014 33.3159 142.014 34.3115V37.295H142.842V34.0346C142.842 32.7621 141.902 31.9346 140.63 31.9346C139.967 31.9346 139.304 32.1555 138.863 32.7621V29.2808H138.866Z" fill="#272564"/>
<path fill-rule="evenodd" clip-rule="evenodd" d="M43.6901 9.87971C41.5341 8.82806 39.4901 8.33355 36.8923 8.33355C32.5802 8.33355 30.0385 10.3248 30.0385 13.6379C30.0385 16.4006 31.8615 18.0588 35.6198 18.5566L37.0011 18.7775C38.8802 19.0544 39.7077 19.4962 39.7077 20.2709C39.7077 21.2105 38.7121 21.7643 36.6681 21.7643C34.2352 21.7643 32.5242 21.1017 31.1429 20.2182L29.3758 23.5347C31.5319 25.0281 34.4066 25.4138 36.6154 25.4138C41.3692 25.4138 44.1319 23.2577 44.1319 19.8885C44.1319 17.1819 42.1407 15.5764 38.6593 15.0786L37.1659 14.8577C35.6725 14.6369 34.5121 14.3599 34.5121 13.4204C34.5121 12.5369 35.3396 11.983 36.9978 11.983C38.8769 11.983 40.9209 12.6456 42.2495 13.3083L43.6868 9.88301L43.6901 9.87971ZM55.7956 8.33355C53.5308 8.33355 51.9813 9.21707 50.933 10.5456V8.72257H46.6209V31.7632H50.9857V23.3072C52.0374 24.5797 53.5835 25.4072 55.7956 25.4072C60.2725 25.4072 63.6451 21.761 63.6451 16.839C63.6451 11.9171 60.2725 8.32696 55.7956 8.32696V8.33355ZM54.9681 12.4248C57.5659 12.4248 59.1681 14.416 59.1681 16.9017C59.1681 19.3874 57.5659 21.3226 54.9681 21.3226C52.3703 21.3226 50.7681 19.4434 50.7681 16.9017C50.7681 14.3599 52.4824 12.4248 54.9681 12.4248ZM75.0846 8.33355C73.0934 8.33355 71.5473 8.99619 70.4989 10.5456V8.72257H66.2429V25.0281H70.6637V16.1863C70.6637 13.7533 72.0451 12.4841 74.089 12.4841C74.9725 12.4841 76.0242 12.705 76.7429 13.0379L77.4055 8.67311C76.7989 8.45224 76.0242 8.34015 75.0846 8.34015V8.33355ZM83.8176 8.71927H79.3967V25.0248H83.8176V8.71597V8.71927ZM81.6055 0.592896C80.0033 0.592896 78.7868 1.86542 78.7868 3.41158C78.7868 4.95773 80.0033 6.23026 81.6055 6.23026C83.2077 6.23026 84.3681 5.01377 84.3681 3.41158C84.3681 1.80938 83.1517 0.592896 81.6055 0.592896ZM96.5297 8.33026C94.6506 8.33026 92.8835 8.93685 91.7198 10.6511V8.71597H87.4637V25.0215H91.8286V16.1237C91.8286 13.6379 93.3747 12.4215 95.2538 12.4215C97.2978 12.4215 98.4582 13.7467 98.4582 16.0676V25.0215H102.823V14.6863C102.823 10.872 100.169 8.33026 96.5231 8.33026H96.5297ZM117.975 8.71597H112.116V3.90938H107.696V8.71927H104.6V12.6423H107.696V18.9423C107.696 23.1423 109.796 25.4072 113.831 25.4072C116.152 25.4072 117.754 24.6885 119.191 23.6929L117.589 20.2676C116.705 20.8215 115.598 21.3193 114.549 21.3193C113.168 21.3193 112.116 20.6006 112.116 18.5566V12.6423H117.975V8.71927V8.71597ZM127.924 8.33026C123.062 8.33026 119.689 11.8116 119.689 16.9511C119.689 22.0907 123.114 25.4632 128.145 25.4632C130.852 25.4632 133.229 24.6885 135.055 22.9775L132.513 20.1588C131.353 21.1544 129.807 21.705 128.369 21.705C126.325 21.705 124.667 20.7094 124.225 18.3325H135.721C135.777 17.9995 135.833 17.3929 135.833 16.8951C135.833 11.8116 132.629 8.32696 127.931 8.32696L127.924 8.33026ZM127.868 12.0885C129.747 12.0885 131.02 13.305 131.405 15.3489H124.222C124.608 13.3577 125.824 12.0885 127.868 12.0885ZM147.266 8.33026C145.275 8.33026 143.729 8.9929 142.68 10.5423V8.71927H138.424V25.0248H142.845V16.183C142.845 13.75 144.226 12.4808 146.27 12.4808C147.154 12.4808 148.205 12.7017 148.924 13.0347L149.531 8.66982C148.977 8.44894 148.205 8.33685 147.266 8.33685V8.33026Z" fill="#272564"/>
</svg>
